<svg height="480pt" viewBox="0 0 480 480.0053" width="480pt" xmlns="http://www.w3.org/2000/svg"><path d="m8.003906 344.003906h464v128h-464zm0 0" fill="#394d5c"/><path d="m8.003906 280.003906h464v32h-464zm0 0" fill="#394d5c"/><path d="m72.003906 40.003906h112v112h-112zm0 0" fill="#ffd782"/><path d="m72.003906 152.003906h112v128h-112zm0 0" fill="#32b1cc"/><path d="m104.003906 152.003906s0 32 24 32 24-32 24-32zm0 0" fill="#f9bb4b"/><path d="m96.003906 64.003906h16v16h-16zm0 0" fill="#394d5c"/><path d="m144.003906 64.003906h16v16h-16zm0 0" fill="#394d5c"/><path d="m128.003906 129.621094-28.441406-18.960938 8.878906-13.3125 19.5625 13.042969 19.558594-13.042969 8.878906 13.3125zm0 0" fill="#394d5c"/><path d="m40.003906 72.003906h32v48h-32zm0 0" fill="#5a6470"/><path d="m48.003906 72.003906h-16v-64c0-4.417968 3.582032-7.99999975 8-7.99999975h144c4.417969 0 8 3.58203175 8 7.99999975v32h-16v-24h-128zm0 0" fill="#aabece"/><path d="m184.003906 72.003906h16c8.835938 0 16 7.164063 16 16v32h-32zm0 0" fill="#f9bb4b"/><path d="m184.003906 120.003906h32v64h-32zm0 0" fill="#7fcac9"/><path d="m72.003906 280.003906h-16c-8.835937 0-16-7.160156-16-16v-32h32zm0 0" fill="#f9bb4b"/><path d="m72.003906 232.003906h-32v-64c0-8.835937 7.164063-16 16-16h16zm0 0" fill="#7fcac9"/><path d="m216.003906 152.003906h144v96h-144zm0 0" fill="#5a6470"/><path d="m320.003906 280.003906h-64l16-64h32zm0 0" fill="#aabece"/><path d="m392.003906 232.003906h80v48h-80zm0 0" fill="#cdeef6"/><path d="m288.003906 48.003906h16c8.835938 0 16 7.164063 16 16v32c0 8.839844-7.164062 16-16 16h-16c-8.835937 0-16-7.160156-16-16v-32c0-8.835937 7.164063-16 16-16zm0 0" fill="#3b73a5"/><path d="m120.003906 184.003906h16v96h-16zm0 0" fill="#b5554e"/><g fill="#aabece"><path d="m24.003906 312.003906h432v32h-432zm0 0"/><path d="m32.003906 368.003906h16v16h-16zm0 0"/><path d="m448.003906 448.003906h-32v-16h16v-32h16zm0 0"/><path d="m432.003906 368.003906h16v16h-16zm0 0"/><path d="m272.003906 408.003906c0 17.675782-14.328125 32-32 32-17.675781 0-32-14.324218-32-32 0-17.671875 14.324219-32 32-32 17.671875 0 32 14.328125 32 32zm0 0"/></g><path d="m397.128906 55.476562-93.125-35.824218v28.351562h-16v-40c-.003906-2.636718 1.292969-5.105468 3.46875-6.597656 2.171875-1.4921875 4.941406-1.820312 7.402344-.871094l104 40zm0 0" fill="#cfdfe8"/><path d="m408.21875 65.859375 15.5625-3.707031 40 168-15.566406 3.707031zm0 0" fill="#cfdfe8"/><path d="m400.003906 72.003906h16v160h-16zm0 0" fill="#aabece"/><path d="m424.003906 56.003906c0 8.839844-7.164062 16-16 16-8.835937 0-16-7.160156-16-16 0-8.835937 7.164063-16 16-16 8.835938 0 16 7.164063 16 16zm0 0" fill="#5a6470"/><path d="m96.003906 64.003906h16v16h-16zm0 0"/><path d="m144.003906 64.003906h16v16h-16zm0 0"/><path d="m97.347656 99.566406c-2.453125 3.675782-1.460937 8.644532 2.214844 11.09375l24 16c2.6875 1.792969 6.191406 1.792969 8.878906 0l24-16c3.675782-2.449218 4.667969-7.417968 2.21875-11.09375-2.453125-3.675781-7.421875-4.667968-11.097656-2.21875l-19.558594 13.058594-19.5625-13.039062c-3.671875-2.457032-8.636718-1.472657-11.09375 2.199218zm0 0"/><path d="m32.003906 368.003906h16v16h-16zm0 0"/><path d="m432.003906 432.003906h-16v16h32v-48h-16zm0 0"/><path d="m432.003906 368.003906h16v16h-16zm0 0"/><path d="m240.003906 368.003906c-22.09375 0-40 17.910156-40 40 0 22.09375 17.90625 40 40 40 22.089844 0 40-17.90625 40-40-.027344-22.078125-17.921875-39.972656-40-40zm0 64c-13.257812 0-24-10.742187-24-24 0-13.253906 10.742188-24 24-24 13.253906 0 24 10.746094 24 24 0 13.257813-10.746094 24-24 24zm0 0"/><path d="m426.050781 71.660156c8.042969-9.230468 7.800781-23.050781-.5625-31.996094-8.363281-8.941406-22.132812-10.113281-31.886719-2.707031l-94.726562-36.421875c-2.460938-.949218-5.230469-.6210935-7.402344.871094-2.175781 1.492188-3.472656 3.960938-3.46875 6.597656v32c-13.257812 0-24 10.746094-24 24v32c0 13.257813 10.742188 24 24 24h16c13.253906 0 24-10.742187 24-24v-32c0-13.253906-10.746094-24-24-24v-20.351562l80.648438 31.015625c-.421875 1.75-.636719 3.539062-.648438 5.335937.039063 10.136719 6.445313 19.152344 16 22.53125v145.46875h-16v48h-57.753906l-4-16h45.753906v-112h-144v-56c0-13.253906-10.746094-24-24-24h-8v-56c0-4.417968-3.582031-7.99999975-8-7.99999975h-144c-4.417968 0-8 3.58203175-8 7.99999975v112c0 4.417969 3.582032 8 8 8h24v16h-8c-13.257812 0-24 10.746094-24 24v96c.023438 2.734375.523438 5.4375 1.472656 8h-25.472656c-4.417968 0-7.99999975 3.582032-7.99999975 8v32c0 4.417969 3.58203175 8 7.99999975 8h8v16h-8c-4.417968 0-7.99999975 3.582032-7.99999975 8v128c0 4.417969 3.58203175 8 7.99999975 8h464c4.417969 0 8-3.582031 8-8v-128c0-4.417968-3.582031-8-8-8h-8v-16h8c4.417969 0 8-3.582031 8-8v-88h-17.679687zm-114.046875-7.65625v32c0 4.417969-3.582031 8-8 8h-16c-4.417968 0-8-3.582031-8-8v-32c0-4.417968 3.582032-8 8-8h16c4.417969 0 8 3.582032 8 8zm104-8c0 4.417969-3.582031 8-8 8-4.417968 0-8-3.582031-8-8 0-4.417968 3.582032-8 8-8 4.417969 0 8 3.582032 8 8zm0 42.539063 29.871094 125.460937h-29.871094zm-336 61.460937h16.664063c1.878906 12.082032 8.214843 27.042969 23.335937 30.984375v81.015625h-40zm48 16c-9.800781 0-13.601562-9.007812-15.074218-16h30.144531c-1.472657 6.992188-5.273438 16-15.070313 16zm8 14.984375c15.117188-3.941406 21.453125-18.902343 23.335938-30.984375h16.664062v112h-40zm56 1.015625h16v64h45.75l-4 16h-57.75zm160-32v80h-33.753906l-8-32h-44.496094l-8 32h-33.75v-80zm-42.25 112h-43.503906l12-48h19.503906zm-101.75-96h-16v-48h16zm-8-96c4.417969 0 8 3.582032 8 8v24h-16v-32zm-24-64v16h-112v32h-16v-48zm-128 96v-32h16v32zm32-64h96v96h-96zm-32 120c0-4.417968 3.582032-8 8-8h8v64h-16zm0 96v-24h16v32h-8c-4.417968 0-8-3.582031-8-8zm416 200h-448v-112h448zm-16-128h-416v-16h416zm16-32h-448v-16h448zm0-32h-64v-32h64zm0 0"/></svg>