<svg height="512pt" viewBox="0 -55 512 512" width="512pt" xmlns="http://www.w3.org/2000/svg"><path d="m305.308594 186.171875h-174.410156c-29.847657 0-57.917969 14.203125-75.601563 38.25-11.851563 16.113281-18.242187 35.59375-18.242187 55.597656v43.960938c0 37.808593 30.648437 68.457031 68.457031 68.457031h.121093c50.242188 0 94.894532-32.046875 110.960938-79.652344 5.273438-15.632812 10.46875-31.222656 15.160156-47.007812 2.71875-9.15625 10.050782-16.394532 19.382813-18.4375 1.605469-.351563 3.246093-.550782 4.90625-.550782.546875 0 1.082031.011719 1.613281.035157 11.742188.496093 21.679688 8.910156 24.5 20.320312 3.800781 15.390625 8.550781 30.378907 13.625 45.480469 16.042969 47.738281 60.808594 79.882812 111.183594 79.8125 37.75-.054688 68.292968-30.761719 68.292968-68.511719v-43.90625c0-20.003906-6.394531-39.484375-18.242187-55.597656-17.6875-24.046875-45.753906-38.25-75.605469-38.25zm0 0" fill="#ffcb7c"/><path d="m37.054688 311.207031h-11.460938c-8.613281 0-15.59375-6.980469-15.59375-15.59375s6.980469-15.59375 15.59375-15.59375h11.460938zm0 0" fill="#91d9b9"/><path d="m486.40625 311.207031h-11.148438v-31.1875h11.148438c8.613281 0 15.59375 6.980469 15.59375 15.59375s-6.980469 15.59375-15.59375 15.59375zm0 0" fill="#91d9b9"/><path d="m105.511719 360.46875h.121093c28.214844 0 53.957032-13.871094 69.617188-36.125h-106.21875c.199219 19.984375 16.449219 36.125 36.480469 36.125zm0 0" fill="#bd5b4c"/><path d="m193.796875 218.140625h-61.996094c-19.722656 0-38.5625 8.960937-50.394531 24.738281-1.773438 2.367188-3.351562 4.835938-4.757812 7.386719h128.515624c1.175782-2.773437 2.402344-5.601563 3.691407-8.394531 5.117187-11.074219-2.859375-23.730469-15.058594-23.730469zm0 0" fill="#9bc6ff"/><path d="m407.007812 360.46875c19.945313-.050781 36.074219-16.222656 36.269532-36.125h-106.097656c15.691406 22.308594 41.515624 36.191406 69.828124 36.125zm0 0" fill="#bd5b4c"/><path d="m430.898438 242.875c-11.835938-15.777344-30.671876-24.734375-50.394532-24.734375h-61.007812c-11.8125 0-19.902344 11.976563-15.421875 22.90625 1.253906 3.066406 2.457031 6.183594 3.601562 9.214844h127.984375c-1.40625-2.550781-2.984375-5.019531-4.761718-7.386719zm0 0" fill="#9bc6ff"/><path d="m443.285156 287.304688v-7.285157c0-10.527343-2.625-20.671875-7.625-29.753906h-127.984375c2.324219 6.144531 4.414063 11.949219 6.234375 16.25l.484375 1.132813 6.601563 19.65625zm0 0" fill="#bd5b4c"/><path d="m199.222656 264.570312c1.753906-4.136718 3.746094-9.117187 5.941406-14.304687h-128.515624c-5 9.082031-7.625 19.226563-7.625 29.753906v7.285157h122.429687l7.296875-21.625zm0 0" fill="#bd5b4c"/><g fill="#91d9b9"><path d="m105.511719 360.46875h.121093c28.214844 0 53.957032-13.871094 69.617188-36.125h-106.21875c.199219 19.984375 16.449219 36.125 36.480469 36.125zm0 0"/><path d="m407.007812 360.46875c19.945313-.050781 36.074219-16.222656 36.269532-36.125h-106.097656c15.691406 22.308594 41.515624 36.191406 69.828124 36.125zm0 0"/><path d="m443.285156 287.304688v-7.285157c0-10.527343-2.625-20.671875-7.625-29.753906h-127.984375c2.324219 6.144531 4.414063 11.949219 6.234375 16.25l.484375 1.132813 6.601563 19.65625zm0 0"/><path d="m199.222656 264.570312c1.753906-4.136718 3.746094-9.117187 5.941406-14.304687h-128.515624c-5 9.082031-7.625 19.226563-7.625 29.753906v7.285157h122.429687l7.296875-21.625zm0 0"/></g><path d="m69.023438 287.304688v36.675781c0 .121093.007812.242187.007812.363281h106.214844c4.632812-6.582031 8.390625-13.886719 11.0625-21.792969l5.144531-15.246093zm0 0" fill="#9bc6ff"/><path d="m320.996094 287.304688h122.289062-122.289062l5.089844 15.136718c2.671874 7.949219 6.441406 15.292969 11.09375 21.902344h106.097656c0-.121094.007812-.242188.007812-.363281v-36.675781zm0 0" fill="#9bc6ff"/><path d="m27.050781 301.210938h-1.449219c-3.089843 0-5.601562-2.511719-5.601562-5.601563 0-3.078125 2.511719-5.589844 5.601562-5.589844h1.449219zm459.347657-31.191407h-1.136719v-201.757812c0-18.742188-7.871094-36.832031-21.570313-49.621094l-17.101562-15.949219c-4.039063-3.773437-10.371094-3.550781-14.128906.488282-3.769532 4.039062-3.550782 10.371093.488281 14.128906l17.089843 15.960937c9.671876 9.011719 15.222657 21.769531 15.222657 34.992188v150.5c-.070313-.09375-.132813-.183594-.191407-.261719-19.492187-26.511719-50.761718-42.332031-83.660156-42.332031h-.179687c-5.519531 0-10 4.480469-10 10 0 5.523437 4.480469 10 10 10h.179687c26.558594 0 51.808594 12.78125 67.550782 34.183593 10.660156 14.5 16.300781 31.667969 16.300781 49.667969v43.910157c0 32.21875-26.160157 58.460937-58.3125 58.511718h-.148438c-46.070312 0-86.859375-29.320312-101.539062-73-4.402344-13.089844-9.433594-28.632812-13.402344-44.691406-3.890625-15.761719-17.78125-27.238281-33.78125-27.921875-2.917969-.117187-6.019531.070313-9.078125.742187-12.730469 2.789063-23.011719 12.507813-26.828125 25.359376-4.761719 16.011718-10.050781 31.832031-15.050781 46.660156-14.710938 43.570312-55.492188 72.851562-101.492188 72.851562h-.117187c-32.230469 0-58.460938-26.230468-58.460938-58.460937v-43.960938c0-18 5.640625-35.167969 16.300781-49.667969 15.738282-21.402343 40.988282-34.183593 67.546876-34.183593h174.410156c5.519531 0 10-4.476563 10-10 0-5.519531-4.480469-10-10-10h-174.410156c-32.898438 0-64.167969 15.820312-83.660157 42.332031-.058593.078125-.117187.167969-.1875.261719v-150.5c0-13.222657 5.550781-25.980469 15.21875-35l17.089844-15.953125c4.039063-3.757813 4.261719-10.089844.492187-14.128906-3.761718-4.039063-10.089843-4.261719-14.132812-.488282l-17.097656 15.949219c-13.699219 12.789063-21.570313 30.878906-21.570313 49.621094v201.757812h-1.449219c-14.121093 0-25.601562 11.480469-25.601562 25.589844 0 14.121094 11.480469 25.601563 25.601562 25.601563h1.449219v2.769531c0 43.257812 35.199219 78.460937 78.460938 78.460937h.117187c54.582032 0 102.980469-34.75 120.441406-86.460937 5.058594-15 10.410157-31.019531 15.269532-47.351563 1.738281-5.878906 6.320312-10.289062 11.941406-11.519531 1.398438-.308594 2.707031-.347656 3.949219-.289063 7.191406.300782 13.441406 5.53125 15.21875 12.71875 4.140625 16.769532 9.320312 32.800782 13.851562 46.269532 17.417969 51.839844 65.828125 86.632812 120.488281 86.632812h.191407c43.160156-.0625 78.28125-35.28125 78.28125-78.511718v-2.71875h1.136719c14.121093 0 25.601562-11.480469 25.601562-25.601563 0-14.109375-11.480469-25.589844-25.601562-25.589844zm0 31.191407h-1.136719v-11.191407h1.136719c3.089843 0 5.601562 2.511719 5.601562 5.589844 0 3.089844-2.511719 5.601563-5.601562 5.601563zm0 0"/><path d="m193.796875 208.140625h-61.996094c-23.070312 0-44.898437 10.746094-58.394531 28.738281-2.003906 2.675782-3.859375 5.554688-5.515625 8.5625-5.800781 10.535156-8.867187 22.492188-8.867187 34.578125v43.960938c0 .183593.003906.371093.011718.484375v.027344c.277344 25.355468 21.117188 45.976562 46.476563 45.976562h.121093c30.921876 0 60.003907-15.09375 77.792969-40.371094 5.277344-7.492187 9.433594-15.6875 12.355469-24.347656l5.148438-15.25 7.175781-21.261719.324219-.761719v-.003906c.847656-2.003906 1.753906-4.203125 2.710937-6.527344 1.015625-2.480468 2.097656-5.101562 3.230469-7.78125v-.003906c1.332031-3.144531 2.464844-5.71875 3.5625-8.09375 3.855468-8.347656 3.210937-17.941406-1.730469-25.667968-4.910156-7.671876-13.285156-12.257813-22.40625-12.257813zm-61.996094 20h61.996094c3.265625 0 4.972656 2.125 5.558594 3.035156.597656.9375 1.835937 3.441407.421875 6.503907-.386719.835937-.773438 1.691406-1.171875 2.585937h-100.953125c9.371094-7.722656 21.488281-12.125 34.148437-12.125zm58.21875 32.523437c-.257812.601563-.535156 1.199219-.742187 1.820313l-5.003906 14.820313h-105.183594c.300781-5.925782 1.582031-11.632813 3.828125-17.039063h107.269531c-.058594.132813-.113281.265625-.167969.398437zm-13.1875 38.6875c-1.769531 5.242188-4.109375 10.265626-6.980469 14.992188h-90.828124v-17.039062h98.5zm-71.203125 51.117188h-.117187c-10.882813 0-20.304688-6.664062-24.359375-16.125h70.984375c-13.097657 10.308594-29.445313 16.125-46.507813 16.125zm0 0"/><path d="m297.351562 219.953125c-4.949218 7.375-5.894531 16.679687-2.53125 24.886719 1.046876 2.554687 2.125 5.316406 3.5 8.957031.597657 1.582031 1.179688 3.140625 1.746094 4.652344 1.644532 4.414062 3.203125 8.582031 4.640625 11.96875l.328125.78125 6.484375 19.289062c.007813.023438.015625.042969.023438.066407.019531.050781.03125.105468.050781.15625l5.011719 14.917968c2.925781 8.703125 7.097656 16.9375 12.394531 24.46875 17.792969 25.292969 46.863281 40.371094 77.800781 40.371094h.230469c25.210938-.0625 45.929688-20.644531 46.242188-45.90625 0-.015625.003906-.03125.003906-.046875.003906-.179687.007812-.355469.007812-.535156v-43.960938c0-12.085937-3.066406-24.046875-8.867187-34.578125 0-.003906-.003907-.007812-.003907-.007812-1.65625-3.007813-3.511718-5.890625-5.519531-8.558594-13.496093-17.992188-35.324219-28.730469-58.390625-28.730469h-61.007812c-8.902344-.003906-17.183594 4.414063-22.144532 11.808594zm38.210938 79.304687-.65625-1.953124h98.378906v17.039062h-90.707031c-2.890625-4.757812-5.242187-9.8125-7.015625-15.085938zm97.65625-21.953124h-105.03125l-4.316406-12.84375c-.476563-1.425782-1.15625-2.800782-1.714844-4.195313h107.238281c2.246094 5.40625 3.527344 11.113281 3.824219 17.039063zm-26.238281 73.164062c-.058594 0-.117188 0-.179688 0-17.070312 0-33.421875-5.8125-46.515625-16.125h70.875c-4.03125 9.4375-13.378906 16.097656-24.179687 16.125zm-93.019531-119.371094c.59375-.890625 2.328124-2.957031 5.535156-2.957031h61.007812c12.664063 0 24.78125 4.402344 34.152344 12.125h-100.117188c-.414062-1.050781-.8125-2.039063-1.210937-3.011719-1.199219-2.921875.042969-5.277344.632813-6.15625zm0 0"/><path d="m334.089844 190c1.644531 3.941406 5.714844 6.449219 9.972656 6.140625 4.175781-.300781 7.773438-3.28125 8.894531-7.304687 2.503907-8.980469-8.113281-16.191407-15.582031-10.695313-3.65625 2.691406-4.996094 7.679687-3.285156 11.859375zm0 0"/></svg>