<svg height="511pt" viewBox="-23 1 511 511.99988" width="511pt" xmlns="http://www.w3.org/2000/svg"><g fill="#ffcb7c"><path d="m10.5 442.558594v44.019531c0 8.527344 6.914062 15.441406 15.441406 15.441406h415.097656c8.523438 0 15.441407-6.914062 15.441407-15.441406v-274.722656c0-6.382813-3.871094-11.863281-9.382813-14.210938-1.859375-.804687-3.90625-1.242187-6.058594-1.242187h-53.597656v124.421875l-112.015625 61.210937c-26.128906 14.277344-57.742187 14.277344-83.871093 0l-112.015626-61.210937v-124.421875h-53.597656c-2.152344 0-4.199218.4375-6.058594 1.242187-5.511718 2.347657-9.382812 7.828125-9.382812 14.210938zm0 0"/><path d="m256.363281 19.015625 50.25 47.289063h-146.410156l50.414063-47.289063c12.875-12.050781 32.871093-12.050781 45.746093 0zm0 0"/><path d="m451.507812 200.503906c-1.289062-1.1875-2.777343-2.167968-4.410156-2.859375-1.859375-.808593-3.910156-1.238281-6.058594-1.238281h-53.59375v-54.425781l.128907-.210938zm0 0"/><path d="m15.472656 200.503906c1.292969-1.1875 2.78125-2.167968 4.410156-2.859375 1.863282-.808593 3.914063-1.238281 6.0625-1.238281h53.59375v-54.425781l-.128906-.210938zm0 0"/></g><path d="m387.441406 81.394531v239.429688l-112.015625 61.210937c-26.128906 14.277344-57.742187 14.277344-83.871093 0l-112.015626-61.210937v-239.429688c0-8.332031 6.757813-15.085937 15.089844-15.085937h277.722656c8.332032-.003906 15.089844 6.753906 15.089844 15.085937zm0 0" fill="#dff6fc"/><path d="m275.234375 168.621094c0-32.113282-18.726563-58.144532-41.824219-58.144532-23.101562 0-41.828125 26.03125-41.828125 58.144532 0 32.113281 18.726563 58.144531 41.828125 58.144531 23.097656 0 41.824219-26.03125 41.824219-58.144531zm0 0" fill="#f6838d"/><path d="m233.789062 226.773438s-28.40625-.824219-28.40625 30.785156c0 0 14.367188-11.558594 28.40625 4.273437 14.035157-15.832031 28.402344-4.273437 28.402344-4.273437 0-31.609375-28.402344-30.785156-28.402344-30.785156zm0 0" fill="#f6838d"/><path d="m206.839844 227.253906c-.042969.046875-.089844.085938-.132813.128906-7.515625 7.296876-11.324219 17.445313-11.324219 30.15625 0 3.914063 2.144532 7.585938 5.707032 9.214844 3.539062 1.617188 7.554687 1.144532 10.507812-1.378906 2.390625-1.746094 6.847656-3.609375 12.1875.660156v34.574219c0 19.851563-.425781 30.621094-9.554687 39.367187-3.988281 3.820313-4.125 10.148438-.304688 14.136719 1.964844 2.050781 4.59375 3.085938 7.222657 3.085938 2.488281 0 4.980468-.921875 6.917968-2.78125 15.722656-15.058594 15.722656-33.882813 15.722656-53.808594v-34.578125c5.335938-4.265625 9.792969-2.402344 12.183594-.65625 2.957032 2.527344 6.972656 2.992188 10.511719 1.375 3.5625-1.625 5.707031-5.296875 5.707031-9.214844 0-12.707031-3.808594-22.855468-11.324218-30.152344-.15625-.15625-.316407-.300781-.476563-.449218 3.890625-3.109375 7.496094-6.910156 10.710937-11.378906 9.113282-12.671876 14.132813-29.34375 14.132813-46.957032 0-17.609375-5.019531-34.285156-14.132813-46.953125-9.828124-13.667969-23.214843-21.191406-37.691406-21.191406-14.480468 0-27.867187 7.523437-37.695312 21.191406-9.113282 12.667969-14.132813 29.34375-14.132813 46.953125s5.019531 34.285156 14.132813 46.957032c3.328125 4.628906 7.074218 8.535156 11.125 11.699218zm26.949218 21.328125c-4.578124-3.046875-9.554687-4.769531-14.695312-5.066406.441406-.605469.921875-1.164063 1.441406-1.679687 4.910156-4.875 12.324219-5.078126 13.011719-5.085938.265625.015625.121094.015625.429687 0 .070313-.019531 7.933594-.003906 13.0625 5.085938.519532.515624 1 1.078124 1.441407 1.679687-5.140625.296875-10.117188 2.019531-14.691407 5.066406zm-.378906-128.125c17.25 0 31.824219 22.046875 31.824219 48.144531 0 26.09375-14.574219 48.140626-31.828125 48.140626-17.25 0-31.824219-22.046876-31.824219-48.140626 0-26.097656 14.574219-48.144531 31.828125-48.144531zm0 0"/><path d="m2.1875 408.941406c2.25 3.4375 6.59375 5.128906 10.582031 4.191406 4.003907-.945312 7.117188-4.34375 7.648438-8.433593.539062-4.152344-1.628907-8.28125-5.351563-10.195313-3.707031-1.90625-8.355468-1.261718-11.402344 1.589844-3.527343 3.300781-4.148437 8.832031-1.476562 12.847656zm0 0"/><path d="m458.113281 192.96875-60.671875-55.738281v-55.859375c0-13.832032-11.253906-25.089844-25.089844-25.089844h-61.773437l-47.359375-44.570312c-.007812-.007813-.015625-.015626-.023438-.019532-16.65625-15.589844-42.753906-15.589844-59.421874.007813l-47.527344 44.582031h-61.617188c-13.835937 0-25.089844 11.257812-25.089844 25.089844v55.863281l-60.769531 55.828125c-.027343.023438-.050781.046875-.074219.070312-.007812.007813-.015624.015626-.023437.019532-5.117187 4.730468-8.171875 11.441406-8.171875 18.683594v71.191406.042968 79.859376c0 5.523437 4.476562 10.003906 10 10.003906s10-4.480469 10-10.003906v-62.988282l88.464844 48.339844 77.792968 42.507812c2.746094 1.5 5.539063 2.859376 8.371094 4.078126 19.929688 8.5625 41.867188 10.175781 62.554688 4.835937 7.742187-1.996094 15.3125-4.964844 22.539062-8.914063l76.492188-41.796874 89.765625-49.050782v186.617188c0 3-2.441407 5.441406-5.441407 5.441406h-415.097656c-3 0-5.441406-2.441406-5.441406-5.441406v-44.023438c0-5.523437-4.476562-10-10-10s-10 4.476563-10 10v44.023438c0 14.027344 11.414062 25.441406 25.441406 25.441406h415.097656c14.03125 0 25.441407-11.414062 25.441407-25.441406v-274.726563c0-7.335937-3.140625-14.132812-8.367188-18.863281zm-60.667969-28.574219 23.929688 21.984375h-23.929688zm-179.996093-138.101562c8.992187-8.414063 23.074219-8.417969 32.070312-.007813l31.875 29.996094h-95.914062zm-127.910157 55.078125c0-2.804688 2.285157-5.085938 5.089844-5.085938h277.722656c2.804688 0 5.085938 2.28125 5.085938 5.085938v233.5l-32.296875 17.648437-74.507813 40.714844c-23.257812 12.707031-51.03125 12.707031-74.289062 0l-66.722656-36.460937-40.082032-21.902344zm-20 105.007812h-23.929687l23.929687-21.984375zm-49.039062 25.453125c0-1.585937.6875-3.050781 1.847656-4.074219.964844-.855468 2.304688-1.375 3.597656-1.375h43.59375v97.5625l-49.039062-26.796874zm376.941406 92.113281v-97.5625h43.597656c2.9375 0 5.441407 2.480469 5.441407 5.449219v65.316407zm0 0"/></svg>