<svg height="512pt" viewBox="-110 0 512 512.00021" width="512pt" xmlns="http://www.w3.org/2000/svg"><path d="m281.785156 142.9375v330.601562c0 15.714844-12.738281 28.457032-28.449218 28.457032h-214.886719c-15.714844 0-28.449219-12.742188-28.449219-28.457032v-330.601562c0-15.714844 12.734375-28.457031 28.449219-28.457031h106.917969l-14.964844 31.816406-14.484375 30.789063h63.585937l14.695313-30.789063 15.171875-31.816406h43.964844c15.710937 0 28.449218 12.742187 28.449218 28.457031zm0 0" fill="#dff6fc"/><path d="m147.128906 426.699219c-96.605468-32.277344-67.023437-136.289063-67.023437-136.289063l67.023437-26.621094 67.027344 26.621094s29.578125 104.011719-67.027344 136.289063zm0 0" fill="#ffcb7c"/><g fill="#79b2ff"><path d="m194.519531 10-78.605469 167.085938h63.585938l79.726562-167.085938zm0 0"/><path d="m92.117188 10 49.851562 104.480469h-64.273438l-49.164062-104.480469zm0 0"/><path d="m150.003906 304.785156 9.242188 18.730469c.46875.945313 1.367187 1.601563 2.414062 1.753906l20.667969 3c2.628906.382813 3.679687 3.613281 1.773437 5.46875l-14.953124 14.578125c-.757813.734375-1.101563 1.796875-.921876 2.835938l3.53125 20.585937c.449219 2.617188-2.300781 4.613281-4.652343 3.378907l-18.484375-9.71875c-.933594-.492188-2.050782-.492188-2.984375 0l-18.484375 9.71875c-2.351563 1.234374-5.101563-.761719-4.652344-3.378907l3.53125-20.585937c.179688-1.039063-.164062-2.101563-.921875-2.835938l-14.953125-14.578125c-1.902344-1.855469-.855469-5.085937 1.773438-5.46875l20.667968-3c1.042969-.152343 1.945313-.808593 2.414063-1.753906l9.242187-18.730469c1.175782-2.382812 4.574219-2.382812 5.75 0zm0 0"/></g><path d="m253.335938 104.480469h-28.109376l43.027344-90.171875c2.375-4.984375.265625-10.953125-4.71875-13.332032-4.984375-2.375-10.957031-.265624-13.332031 4.71875l-49.851563 104.472657c-.003906 0-.003906.003906-.003906.007812l-4.371094 9.160157-22.785156 47.75h-41.515625l.527344-1.121094 7.25-15.410156c0-.003907.003906-.011719.007813-.019532l14.25-30.292968 49.855468-105.980469c2.351563-5 .207032-10.957031-4.792968-13.308594-4.996094-2.351563-10.953126-.203125-13.304688 4.792969l-41.851562 88.964844-42.476563-89.015626c-2.375-4.984374-8.347656-7.097656-13.328125-4.71875-4.988281 2.378907-7.101562 8.347657-4.722656 13.332032l43.027344 90.171875h-42.078126l-46.457031-98.734375c-2.351562-5-8.308593-7.140625-13.308593-4.792969-4.996094 2.351563-7.140626 8.308594-4.789063 13.308594l42.453125 90.21875h-23.488281c-21.203125 0-38.449219 17.253906-38.449219 38.460937v330.601563c0 21.203125 17.246094 38.457031 38.449219 38.457031h214.886719c21.199218 0 38.449218-17.253906 38.449218-38.457031v-330.605469c0-21.203125-17.25-38.457031-38.449218-38.457031zm-49.355469 57.210937c0 1.441406-.5625 2.796875-1.566407 3.804688-.597656.59375-1.886718 1.589844-3.828124 1.589844h-3.230469l5.007812-10.488282c2.101563.738282 3.617188 2.742188 3.617188 5.09375zm-94.414063 5.394532h-16.359375c-2.980469 0-5.402343-2.421876-5.402343-5.394532 0-1.945312.988281-3.226562 1.578124-3.8125 1.019532-1.019531 2.375-1.582031 3.824219-1.582031h21.4375zm162.21875 306.453124c0 10.179688-8.277344 18.460938-18.449218 18.460938h-214.886719c-10.171875 0-18.449219-8.28125-18.449219-18.460938v-330.601562c0-10.175781 8.277344-18.457031 18.449219-18.457031h91.164062l-5.5625 11.816406h-30.84375c-6.789062 0-13.171875 2.640625-17.96875 7.441406-4.792969 4.792969-7.4375 11.171875-7.4375 17.953125 0 14.003906 11.398438 25.394532 25.40625 25.394532h22.691407.015624 63.585938.011719 19.074219c6.765624 0 13.140624-2.636719 17.957031-7.4375 4.792969-4.796876 7.4375-11.171876 7.4375-17.957032 0-10.300781-6.167969-19.179687-15.003907-23.160156l6.707032-14.050781h37.652344c10.171874 0 18.449218 8.28125 18.449218 18.457031zm0 0"/><path d="m67.507812 347.992188c4.699219 30.148437 21.777344 69.925781 76.453126 88.191406 1.027343.34375 2.097656.515625 3.167968.515625 1.070313 0 2.140625-.171875 3.167969-.515625 54.679687-18.269532 71.757813-58.042969 76.453125-88.191406 4.960938-31.835938-2.648438-59.167969-2.976562-60.316407-.851563-2.984375-3.039063-5.410156-5.925782-6.558593l-67.027344-26.621094c-2.371093-.941406-5.011718-.941406-7.382812 0l-67.027344 26.621094c-2.886718 1.148437-5.074218 3.570312-5.925781 6.558593-.328125 1.148438-7.9375 28.480469-2.976563 60.316407zm21.144532-50.214844 58.476562-23.230469 58.476563 23.230469c1.722656 8.421875 4.597656 27.242187 1.289062 47.75-5.570312 34.480468-25.667969 58.210937-59.765625 70.585937-34.09375-12.375-54.191406-36.105469-59.761718-70.585937-3.3125-20.511719-.4375-39.339844 1.285156-47.75zm0 0"/><path d="m247.136719 209.097656h-111.253907c-5.523437 0-10 4.476563-10 10 0 5.523438 4.476563 10 10 10h104.332032v230.652344l-188.660156-.003906v-230.648438h8.363281c5.523437 0 10-4.480468 10-10 0-5.523437-4.476563-10-10-10h-15.289063c-7.207031 0-13.074218 5.863282-13.074218 13.074219v244.5c0 7.210937 5.863281 13.074219 13.074218 13.074219l202.507813.003906c7.210937 0 13.074219-5.867188 13.074219-13.078125l.003906-244.496094c0-7.210937-5.867188-13.078125-13.078125-13.078125zm0 0"/><path d="m115.570312 352.984375-2.925781 17.0625c-.855469 4.992187 1.15625 9.941406 5.253907 12.917969 4.097656 2.976562 9.425781 3.359375 13.90625 1.003906l15.324218-8.058594 15.324219 8.058594c1.949219 1.023438 4.058594 1.53125 6.15625 1.53125 2.726563 0 5.4375-.855469 7.75-2.535156 4.097656-2.976563 6.109375-7.925782 5.253906-12.917969l-2.925781-17.0625 12.394531-12.082031c3.625-3.535156 4.90625-8.722656 3.34375-13.539063-1.5625-4.816406-5.648437-8.257812-10.660156-8.988281l-17.132813-2.488281-7.664062-15.523438c-2.238281-4.539062-6.777344-7.359375-11.839844-7.359375s-9.601562 2.820313-11.839844 7.359375l-7.664062 15.523438-17.132812 2.488281c-5.011719.730469-9.09375 4.175781-10.660157 8.992188-1.566406 4.8125-.285156 10 3.339844 13.53125zm18.464844-17.820313c4.300782-.621093 8.019532-3.324218 9.941406-7.222656l3.152344-6.382812 3.148438 6.378906c1.925781 3.902344 5.644531 6.605469 9.941406 7.226562l7.042969 1.023438-5.09375 4.96875c-3.113281 3.035156-4.535157 7.402344-3.796875 11.6875l1.199218 7.015625-6.296874-3.3125c-3.847657-2.023437-8.445313-2.023437-12.289063 0l-6.300781 3.3125 1.203125-7.011719c.738281-4.285156-.683594-8.65625-3.796875-11.691406l-5.097656-4.96875zm0 0"/><path d="m89.480469 222.917969c1.601562 3.84375 5.542969 6.386719 9.71875 6.167969 4.128906-.21875 7.746093-3.007813 9.023437-6.929688 1.292969-3.960938-.121094-8.460938-3.425781-10.992188-3.363281-2.578124-8.105469-2.730468-11.636719-.382812-3.917968 2.605469-5.484375 7.800781-3.679687 12.136719zm0 0"/></svg>